# AST/ASF file generated using VICON BodyLanguage
# -----------------------------------------------
:version 1.10
:name VICON
:units
  mass 1.0
  length 0.45
  angle deg
:documentation
   .ast/.asf automatically generated from VICON data using
   VICON BodyBuilder and BodyLanguage model FoxedUp or BRILLIANT.MOD
:root
   order TX TY TZ RX RY RZ
   axis XYZ
   position 0 0 0  
   orientation 0 0 0 
:bonedata
  begin
     id 1 
     name lhipjoint
     direction 0.541323 -0.757556 0.364798 
     length 2.47576 
     axis 0 0 0  XYZ
  end
  begin
     id 2 
     name lfemur
     direction 0.34202 -0.939693 0  
     length 7.46493  
     axis 0 0 20  XYZ
    dof rx ry rz
    limits (-160.0 20.0)
           (-70.0 70.0)
           (-60.0 70.0)
  end
  begin
     id 3 
     name ltibia
     direction 0.34202 -0.939693 0   
     length 7.73805   
     axis 0 0 20   XYZ
    dof rx
    limits (-10.0 170.0)
  end
  begin
     id 4 
     name lfoot
     direction 0.107174 -0.294458 0.949636   
     length 2.25864   
     axis -90 7.62852e-016 20   XYZ
    dof rx rz
    limits (-45.0 90.0)
           (-70.0 20.0)
  end
  begin
     id 5 
     name ltoes
     direction 1.53606e-011 -4.21934e-011 1   
     length 1.12451   
     axis -90 7.62852e-016 20   XYZ
    dof rx
    limits (-90.0 20.0)
  end
  begin
     id 6 
     name rhipjoint
     direction -0.524745 -0.766967 0.36933   
     length 2.44538  
     axis 0 0 0  XYZ 
  end
  begin
     id 7 
     name rfemur
     direction -0.34202 -0.939693 0   
     length 7.61604   
     axis 0 0 -20   XYZ
    dof rx ry rz
    limits (-160.0 20.0)
           (-70.0 70.0)
           (-70.0 60.0)
  end
  begin
     id 8 
     name rtibia
     direction -0.34202 -0.939693 0   
     length 7.61056   
     axis 0 0 -20   XYZ
    dof rx
    limits (-10.0 170.0)
 end
 begin
     id 9 
     name rfoot
     direction -0.12616 -0.346623 0.929482   
     length 2.46372  
     axis -90 -7.62852e-016 -20   XYZ
    dof rx rz
    limits (-45.0 90.0)
           (-20.0 70.0)
  end
  begin
     id 10 
     name rtoes
     direction -1.53531e-011 -4.22004e-011 1   
     length 1.21611   
     axis -90 -7.62852e-016 -20   XYZ
    dof rx
    limits (-90.0 20.0)
  end
  begin
     id 11 
     name lowerback
     direction -0.000778023 0.997293 -0.0735223   
     length 2.06139   
     axis 0 0 0   XYZ
    dof rx ry rz
    limits (-20.0 45.0)
           (-30.0 30.0)
           (-30.0 30.0)
  end
  begin
     id 12 
     name upperback
     direction 0.0222598 0.999722 -0.0078355   
     length 2.06383   
     axis 0 0 0   XYZ
    dof rx ry rz
    limits (-20.0 45.0)
           (-30.0 30.0)
           (-30.0 30.0)
  end
  begin
     id 13 
     name thorax
     direction 0.0219654 0.999405 0.0265994   
     length 2.07163   
     axis 0 0 0   XYZ
    dof rx ry rz
    limits (-20.0 45.0)
           (-30.0 30.0)
           (-30.0 30.0)
  end
  begin
     id 14 
     name lowerneck
     direction 0.0213282 0.988147 0.15202   
     length 1.75969   
     axis 0 0 0   XYZ
    dof rx ry rz
    limits (-20.0 45.0)
           (-30.0 30.0)
           (-30.0 30.0)
  end
  begin
     id 15 
     name upperneck
     direction -0.0546456 0.982624 -0.177379   
     length 1.79244   
     axis 0 0 0   XYZ
    dof rx ry rz
    limits (-20.0 45.0)
           (-30.0 30.0)
           (-30.0 30.0)
  end
  begin
     id 16
     name head
     direction -0.0199987 0.996855 -0.076686  
     length 1.80555  
     axis 0 0 0   XYZ
    dof rx ry rz
    limits (-20.0 45.0)
           (-30.0 30.0)
           (-30.0 30.0)
  end
  begin
     id 17 
     name lclavicle
     direction 0.929565 0.363219 -0.063096  
     length 3.55722  
     axis 0 0 0   XYZ
    dof ry rz
    limits (-20.0 10.0)
           (0.0 20.0)
  end
  begin
     id 18 
     name lhumerus
     direction 1 -4.48993e-011 -2.36203e-027   
     length 4.92785   
     axis 180 -30 -90   XYZ
    dof rx ry rz
    limits (-60.0 90.0)
           (-90.0 90.0)
           (-90.0 90.0)
  end
  begin
     id 19
     name lradius
     direction 1 -4.48947e-011 2.02997e-027   
     length 3.44052   
     axis 180 -30 -90   XYZ
    dof rx
    limits (-10.0 170.0)
  end
  begin
     id 20
     name lwrist
     direction 1 -4.48962e-011 1.45991e-027   
     length 1.72026   
     axis 1.49639e-024 90 90   XYZ
    dof ry
    limits (-180.0 0.0)
 end
  begin
     id 21 
     name lhand
     direction 1 -4.48984e-011 2.91906e-027   
     length 0.654326   
     axis -1.863e-015 90 90   XYZ
    dof rx rz
    limits (-90.0 90.0)
           (-45.0 45.0)
  end
  begin
     id 22 
     name lfingers
     direction 1 -4.48961e-011 5.83968e-027   
     length 0.527534   
     axis -3.72598e-015 90 90   XYZ
    dof rx
    limits (0.0 90.0)
  end
  begin
     id 23
     name lthumb
     direction 0.707107 -6.34963e-011 0.707107   
     length 0.757437   
     axis -90 45 -6.68868e-015   XYZ
    dof rx rz
    limits (-45.0 45.0)
           (-45.0 45.0)
  end
  begin
     id 24 
     name rclavicle
     direction -0.902944 0.422599 -0.0781198   
     length 3.54432  
     axis 0 0 0   XYZ 
    dof ry rz
    limits (-10.0 20.0)
           (-20.0 0.0)
  end
  begin
     id 25 
     name rhumerus
     direction -1 -4.48953e-011 -4.75835e-028  
     length 5.09181   
     axis 180 30 90   XYZ
    dof rx ry rz
    limits (-90.0 60.0)
           (-90.0 90.0)
           (-90.0 90.0)
  end
  begin
     id 26 
     name rradius
     direction -1 -4.48986e-011 -3.25889e-027   
     length 3.49865   
     axis 180 30 90   XYZ
    dof rx
    limits (-10.0 170.0)
  end
  begin
     id 27 
     name rwrist
     direction -1 -4.48963e-011 1.45989e-027   
     length 1.74933   
     axis 1.49639e-024 -90 -90   XYZ
    dof ry
    limits (-180.0 0.0)
  end
  begin
     id 28
     name rhand
     direction -1 -4.49003e-011 2.91844e-027   
     length 0.66641   
     axis -1.863e-015 -90 -90   XYZ
    dof rx rz
    limits (-90.0 90.0)
           (-45.0 45.0)
  end
  begin
     id 29
     name rfingers
     direction -1 -4.48973e-011 5.83886e-027   
     length 0.537277   
     axis -3.72598e-015 -90 -90   XYZ
    dof rx
    limits (0.0 90.0)
  end
  begin
     id 30
     name rthumb
     direction -0.707107 -6.34976e-011 0.707107   
     length 0.771425   
     axis -90 -45 6.68868e-015   XYZ
    dof rx rz
    limits (-45.0 45.0)
           (-45.0 45.0)
  end
:hierarchy
  begin
    root lhipjoint rhipjoint lowerback
    lhipjoint lfemur
    lfemur ltibia
    ltibia lfoot
    lfoot ltoes
    rhipjoint rfemur
    rfemur rtibia
    rtibia rfoot
    rfoot rtoes
    lowerback upperback
    upperback thorax
    thorax lowerneck lclavicle rclavicle
    lowerneck upperneck
    upperneck head
    lclavicle lhumerus
    lhumerus lradius
    lradius lwrist
    lwrist lhand lthumb
    lhand lfingers
    rclavicle rhumerus
    rhumerus rradius
    rradius rwrist
    rwrist rhand rthumb
    rhand rfingers
  end

#!OML:ASF H:\LiuWeirdWalks\Patient Classification 1\Patient 1\Session 1\male.ASF
:FULLY-SPECIFIED
:DEGREES
47
root 1.07867 17.7684 -31.3912 -0.104587 6.15232 -3.58003
lowerback 5.45755 0.872433 -1.65545
upperback -1.63257 1.0953 1.11125
thorax -4.80732 0.609692 1.97654
lowerneck -20.8225 -1.82614 9.07369
upperneck 24.5738 -3.88951 -6.30465
head 11.0822 -1.72545 -4.43411
rclavicle 3.12496e-014 4.37326e-015
rhumerus -37.0556 -15.2882 -74.8272
rradius 26.3294
rwrist -3.3064
rhand -14.9891 -3.29011
rfingers 7.12502
rthumb 11.1752 -32.9725
lclavicle 3.12496e-014 4.37326e-015
lhumerus -34.2437 -2.60121 84.2977
lradius 30.0898
lwrist 6.61517
lhand -13.2024 -1.35662
lfingers 7.12502
lthumb 12.8981 28.2248
rfemur -10.744 -5.55022 18.0682
rtibia 50.6952
rfoot -7.19941 -11.2519
rtoes -20.7766
lfemur -9.86453 1.24678 -21.1373
ltibia 32.7629
lfoot -14.758 12.2106
ltoes -10.9755
48
root 1.08344 17.7582 -31.3991 -0.0490936 6.0684 -3.51607
lowerback 5.48031 0.741201 -1.79861
upperback -1.65419 0.917944 1.29648
thorax -4.8403 0.529644 2.26647
lowerneck -20.8963 -1.50098 9.11308
upperneck 24.5964 -3.36589 -6.60196
head 11.1452 -1.52186 -4.48166
rclavicle -1.71949e-014 3.57812e-015
rhumerus -36.8616 -14.7823 -74.7696
rradius 26.1933
rwrist -3.23561
rhand -15.0101 -3.31616
rfingers 7.12502
rthumb 11.155 -32.9996
lclavicle -1.71949e-014 3.57812e-015
lhumerus -34.3402 -1.80194 84.2851
lradius 30.0712
lwrist 6.54616
lhand -13.3527 -1.47885
lfingers 7.12502
lthumb 12.7532 28.1117
rfemur -10.9385 -5.53778 17.9786
rtibia 50.9161
rfoot -7.25669 -11.2256
rtoes -20.9735
lfemur -9.88215 1.17982 -21.3026
ltibia 32.6846
lfoot -14.831 12.6543
ltoes -10.6135
49
root 1.08658 17.7489 -31.4085 0.00547281 6.02393 -3.43997
lowerback 5.52339 0.605804 -1.96785
upperback -1.67571 0.732211 1.47002
thorax -4.88244 0.44628 2.56018
lowerneck -20.9631 -1.18562 9.17161
upperneck 24.5979 -2.86504 -6.88679
head 11.1991 -1.32603 -4.52938
rclavicle 2.00943e-014 1.21259e-014
rhumerus -36.673 -14.3407 -74.704
rradius 26.0675
rwrist -3.16843
rhand -15.045 -3.35555
rfingers 7.12502
rthumb 11.1213 -33.0409
lclavicle 2.00943e-014 1.21259e-014
lhumerus -34.4362 -1.03178 84.2622
lradius 30.0461
lwrist 6.49781
lhand -13.4953 -1.55355
lfingers 7.12502
lthumb 12.6157 28.0455
rfemur -11.1413 -5.54969 17.8857
rtibia 51.154
rfoot -7.3072 -11.2251
rtoes -21.1384
lfemur -9.91863 1.1156 -21.4523
ltibia 32.6229
lfoot -14.9153 12.9578
ltoes -10.2572
50
root 1.08784 17.7407 -31.4195 0.0621222 6.02148 -3.32961
lowerback 5.60369 0.541772 -2.13189
upperback -1.69467 0.636483 1.53843
thorax -4.9453 0.406016 2.73306
lowerneck -21.0272 -1.0204 9.2138
upperneck 24.5751 -2.61766 -7.00738
head 11.2242 -1.22631 -4.5473
rclavicle 7.52742e-015 -1.98785e-015
rhumerus -36.5711 -14.2637 -74.6218
rradius 25.9706
rwrist -3.0753
rhand -15.1042 -3.41234
rfingers 7.12502
rthumb 11.0643 -33.1007
lclavicle 7.52742e-015 -1.98785e-015
lhumerus -34.4667 -0.616753 84.2289
lradius 29.9956
lwrist 6.4935
lhand -13.6229 -1.63675
lfingers 7.12502
lthumb 12.4927 27.9698
rfemur -11.3544 -5.59135 17.7653
rtibia 51.4069
rfoot -7.34618 -11.248
rtoes -21.2883
lfemur -9.97694 1.07703 -21.6101
ltibia 32.5775
lfoot -15.0066 13.1149
ltoes -9.93208
51
root 1.08784 17.7334 -31.4316 0.118911 6.02241 -3.1978
lowerback 5.69501 0.600154 -2.24411
upperback -1.70477 0.700707 1.46089
thorax -5.01242 0.441022 2.70876
lowerneck -21.0683 -1.0787 9.23232
upperneck 24.5266 -2.73889 -6.90994
head 11.204 -1.26844 -4.53005
rclavicle -1.5398e-014 -9.14409e-015
rhumerus -36.6121 -14.6978 -74.5116
rradius 25.9164
rwrist -2.94729
rhand -15.1756 -3.45513
rfingers 7.12502
rthumb 10.9954 -33.1472
lclavicle -1.5398e-014 -9.14409e-015
lhumerus -34.4181 -0.71552 84.1894
lradius 29.9217
lwrist 6.53792
lhand -13.7373 -1.67475
lfingers 7.12502
lthumb 12.3824 27.9385
rfemur -11.5784 -5.63042 17.6288
rtibia 51.6691
rfoot -7.3707 -11.2868
rtoes -21.4121
lfemur -10.0512 1.08902 -21.7678
ltibia 32.5502
lfoot -15.1144 13.1512
ltoes -9.60932
52
root 1.08682 17.7269 -31.4444 0.175293 6.00818 -3.07114
lowerback 5.79087 0.748136 -2.29761
upperback -1.7141 0.883784 1.28257
thorax -5.08627 0.531402 2.53385
lowerneck -21.0622 -1.29512 9.2432
upperneck 24.4395 -3.11968 -6.66105
head 11.1389 -1.4104 -4.48856
rclavicle -4.20864e-016 3.97569e-015
rhumerus -36.7707 -15.486 -74.386
rradius 25.8994
rwrist -2.81048
rhand -15.2648 -3.50396
rfingers 7.12502
rthumb 10.9094 -33.2006
lclavicle -4.20864e-016 3.97569e-015
lhumerus -34.3345 -1.17646 84.1382
lradius 29.8282
lwrist 6.58429
lhand -13.8442 -1.69311
lfingers 7.12502
lthumb 12.2793 27.9264
rfemur -11.8139 -5.64338 17.5087
rtibia 51.9336
rfoot -7.37401 -11.3463
rtoes -21.5251
lfemur -10.1408 1.13472 -21.9038
ltibia 32.5403
lfoot -15.2257 13.1255
ltoes -9.32401
53
root 1.08523 17.7209 -31.4573 0.220955 5.97786 -2.96823
lowerback 5.88366 0.913218 -2.31805
upperback -1.71522 1.09127 1.08949
thorax -5.14938 0.632206 2.32183
lowerneck -21.0361 -1.54033 9.25599
upperneck 24.3298 -3.54878 -6.3771
head 11.0593 -1.57049 -4.43942
rclavicle 5.50385e-015 -1.19271e-015
rhumerus -36.9467 -16.3419 -74.2623
rradius 25.8876
rwrist -2.67631
rhand -15.3542 -3.53524
rfingers 7.12502
rthumb 10.8231 -33.2364
lclavicle 5.50385e-015 -1.19271e-015
lhumerus -34.2543 -1.70168 84.0782
lradius 29.7185
lwrist 6.59791
lhand -13.9703 -1.72341
lfingers 7.12502
lthumb 12.1577 27.9033
rfemur -12.0404 -5.62458 17.4233
rtibia 52.189
rfoot -7.36491 -11.4257
rtoes -21.6143
lfemur -10.2345 1.20232 -22.0058
ltibia 32.5519
lfoot -15.3398 13.0749
ltoes -9.06019
54
root 1.08412 17.7153 -31.4698 0.244315 5.92573 -2.89052
lowerback 5.99283 1.13704 -2.25028
upperback -1.70796 1.38017 0.82788
thorax -5.2121 0.769008 1.97942
lowerneck -21.0015 -1.89198 9.24928
upperneck 24.2488 -4.15138 -5.97805
head 10.9787 -1.79597 -4.36933
rclavicle 6.48147e-015 -1.11319e-014
rhumerus -37.2061 -17.4169 -74.1368
rradius 25.9117
rwrist -2.54868
rhand -15.4455 -3.56392
rfingers 7.12502
rthumb 10.7351 -33.2696
lclavicle 6.48147e-015 -1.11319e-014
lhumerus -34.1356 -2.47988 84.005
lradius 29.576
lwrist 6.59703
lhand -14.0928 -1.73521
lfingers 7.12502
lthumb 12.0397 27.8985
rfemur -12.2363 -5.57554 17.3652
rtibia 52.4246
rfoot -7.34754 -11.5099
rtoes -21.6878
lfemur -10.3139 1.24834 -22.0866
ltibia 32.5847
lfoot -15.4421 13.0725
ltoes -8.80775
55
root 1.08388 17.7101 -31.4817 0.244531 5.85224 -2.87251
lowerback 6.08502 1.15301 -2.27372
upperback -1.6978 1.39729 0.820795
thorax -5.25526 0.77843 1.98194
lowerneck -20.961 -1.86825 9.28688
upperneck 24.166 -4.13736 -5.93846
head 10.9421 -1.78341 -4.35411
rclavicle -7.59653e-015 2.38542e-015
rhumerus -37.2142 -17.6379 -74.0842
rradius 25.887
rwrist -2.52136
rhand -15.5211 -3.60526
rfingers 7.12502
rthumb 10.6622 -33.3147
lclavicle -7.59653e-015 2.38542e-015
lhumerus -34.1851 -2.3663 83.9316
lradius 29.4359
lwrist 6.44165
lhand -14.2114 -1.73029
lfingers 7.12502
lthumb 11.9253 27.9101
rfemur -12.396 -5.49493 17.3723
rtibia 52.6285
rfoot -7.32058 -11.5993
rtoes -21.7417
lfemur -10.3835 1.26135 -22.114
ltibia 32.6418
lfoot -15.5132 13.1489
ltoes -8.58216
56
root 1.08495 17.7056 -31.4934 0.221347 5.77242 -2.90282
lowerback 6.19197 1.17245 -2.22598
upperback -1.67162 1.42471 0.816739
thorax -5.28871 0.790414 1.94632
lowerneck -20.9341 -1.86189 9.29682
upperneck 24.0713 -4.15085 -5.85869
head 10.9031 -1.78117 -4.32324
rclavicle -9.13051e-015 5.56597e-015
rhumerus -37.2124 -17.8699 -74.0484
rradius 25.8788
rwrist -2.5094
rhand -15.5823 -3.63444
rfingers 7.12502
rthumb 10.6031 -33.3469
lclavicle -9.13051e-015 5.56597e-015
lhumerus -34.1876 -2.29821 83.8613
lradius 29.2527
lwrist 6.27322
lhand -14.3082 -1.71945
lfingers 7.12502
lthumb 11.8319 27.9263
rfemur -12.5138 -5.40365 17.4262
rtibia 52.795
rfoot -7.28287 -11.6825
rtoes -21.785
lfemur -10.4407 1.21322 -22.1068
ltibia 32.7192
lfoot -15.5495 13.3226
ltoes -8.35746
57
root 1.08751 17.702 -31.5049 0.176448 5.677 -2.99704
lowerback 6.29687 1.23513 -2.06223
upperback -1.65738 1.51792 0.779812
thorax -5.33254 0.830789 1.80384
lowerneck -20.7469 -1.99219 9.17905
upperneck 23.9056 -4.34546 -5.6032
head 10.7997 -1.85264 -4.2237
rclavicle 1.83139e-014 3.18055e-015
rhumerus -37.3185 -18.2334 -73.9953
rradius 25.9085
rwrist -2.51337
rhand -15.6367 -3.67352
rfingers 7.12502
rthumb 10.5506 -33.3887
lclavicle 1.83139e-014 3.18055e-015
lhumerus -34.1897 -2.44793 83.804
lradius 29.0432
lwrist 6.12477
lhand -14.3465 -1.70498
lfingers 7.12502
lthumb 11.7949 27.9429
rfemur -12.5961 -5.29427 17.544
rtibia 52.9223
rfoot -7.2294 -11.7569
rtoes -21.8208
lfemur -10.4865 1.09373 -22.0498
ltibia 32.8111
lfoot -15.5352 13.6067
ltoes -8.12521
